<svg width="18" height="18" viewBox="0 0 18 18" fill="none" xmlns="http://www.w3.org/2000/svg">
<path d="M12.4642 1.5402C12.4642 1.33247 12.2908 1.16406 12.0768 1.16406H8.61447C8.40054 1.16406 8.22712 1.33247 8.22712 1.5402V2.21725C8.22712 2.42499 8.40054 2.59339 8.61447 2.59339H12.0768C12.2908 2.59339 12.4642 2.42499 12.4642 2.21725V1.5402Z" fill="black" fill-opacity="0.65"/>
<path d="M3.82428 10.2064H3.82307C3.84386 11.8965 4.49906 13.5803 5.78865 14.8698C7.04795 16.1291 8.68311 16.7835 10.333 16.8329C11.9677 16.8829 13.6247 16.3392 14.9534 15.1782C17.7451 12.7389 18.0308 8.49823 15.5915 5.70649C14.6535 4.63303 13.4492 3.9301 12.1634 3.61013C11.7992 3.51941 11.429 3.45961 11.0568 3.43077C10.8838 3.41735 10.7103 3.41062 10.5368 3.41058L10.4921 3.41031H1.13735C0.927173 3.41031 0.75375 3.57872 0.75 3.78645V4.471C0.75375 4.67874 0.923423 4.85089 1.13735 4.84714H10.5419L10.6003 4.84941C10.7155 4.85083 10.8307 4.85599 10.9457 4.8649C11.2673 4.88983 11.587 4.94409 11.9004 5.02771C12.0794 5.07543 12.2562 5.13283 12.4301 5.19952C13.0986 5.45633 13.7252 5.85434 14.2647 6.39381C16.3244 8.45353 16.3244 11.793 14.2647 13.8527C13.1951 14.9223 11.7805 15.4364 10.3792 15.3952C8.96407 15.3527 7.56989 14.7439 6.56487 13.5936C5.70331 12.6076 5.27476 11.3934 5.2625 10.1793L5.265 9.83376L5.26544 9.7573V9.15318C5.26544 8.94544 5.09201 8.77704 4.87809 8.77704H2.84445C2.63052 8.77704 2.4571 8.94544 2.4571 9.15318V9.83023C2.4571 10.038 2.63052 10.2064 2.84445 10.2064L3.82428 10.2064Z" fill="black" fill-opacity="0.65"/>
<path d="M6.54602 6.4716C6.54602 6.26386 6.3726 6.09546 6.15867 6.09546H2.05344C1.83951 6.09546 1.66608 6.26386 1.66608 6.4716V7.14865C1.66608 7.35639 1.83951 7.52479 2.05344 7.52479H6.15867C6.3726 7.52479 6.54602 7.35639 6.54602 7.14865V6.4716Z" fill="black" fill-opacity="0.65"/>
<path d="M9.6147 11.0955C9.06586 10.5466 9.16868 9.63021 9.82551 9.21665L13.1511 7.12277C13.2761 7.04406 13.4389 7.06233 13.5434 7.16678C13.6478 7.27124 13.6661 7.43407 13.5874 7.55907L11.4935 10.8847C11.08 11.5415 10.1635 11.6443 9.6147 11.0955Z" fill="black" fill-opacity="0.65"/>
</svg>
