<svg width="12" height="5" viewBox="0 0 12 5" fill="none" xmlns="http://www.w3.org/2000/svg">
<path d="M5.99952 2.8154C7.46822 2.81531 8.88451 3.37436 9.9732 4.38393C10.1204 4.52722 10.3524 4.52411 10.4959 4.37693L11.8889 2.93564C11.9622 2.86004 12.0029 2.75749 12.0019 2.65092C12.0008 2.54435 11.9581 2.44266 11.8832 2.3686C8.56797 -0.789533 3.43387 -0.789533 0.118613 2.3686C0.0437263 2.44266 0.00100011 2.5444 1.73339e-05 2.651C-0.000965438 2.75761 0.0398775 2.86015 0.113386 2.93564L1.5059 4.37693C1.64944 4.52411 1.8814 4.52722 2.02865 4.38393C3.11661 3.37503 4.53178 2.81602 5.99952 2.8154Z" fill="black"/>
</svg>
