<svg width="16" height="16" viewBox="0 0 16 16" fill="none" xmlns="http://www.w3.org/2000/svg">
<g clip-path="url(#clip0_12_45637)">
<path d="M8 16C12.4183 16 16 12.4183 16 8C16 3.58172 12.4183 0 8 0C3.58172 0 0 3.58172 0 8C0 12.4183 3.58172 16 8 16ZM11.7799 4.8482C11.9963 4.98395 12.0599 5.2682 11.9284 5.48456L7.9278 11.8779C7.77083 12.1282 7.51205 12.2894 7.21932 12.3106C6.93083 12.3361 6.65083 12.2215 6.45992 12.0009L3.79144 8.95062C3.62174 8.76395 3.64295 8.46698 3.83386 8.30153L4.52962 7.69486C4.71629 7.52941 5.00477 7.55062 5.17447 7.74153L7.02841 9.8585L10.3714 4.5088C10.503 4.29244 10.7872 4.2288 11.0036 4.36032L11.7799 4.8482Z" fill="url(#paint0_linear_12_45637)"/>
</g>
<defs>
<linearGradient id="paint0_linear_12_45637" x1="0.326531" y1="2.13333" x2="15.6157" y2="16.0634" gradientUnits="userSpaceOnUse">
<stop stop-color="#15C0F9"/>
<stop offset="0.713542" stop-color="#20D5EC"/>
<stop offset="1" stop-color="#1AE3C6"/>
</linearGradient>
<clipPath id="clip0_12_45637">
<rect width="16" height="16" fill="white"/>
</clipPath>
</defs>
</svg>
