<svg width="34" height="38" viewBox="0 0 34 38" fill="none" xmlns="http://www.w3.org/2000/svg">
<rect y="2" width="34" height="34" rx="17" fill="#00A2C9"/>
<path d="M19.7513 19.2288C19.7513 20.7476 18.5201 21.9788 17.0013 21.9788C15.4825 21.9788 14.2513 20.7476 14.2513 19.2288C14.2513 17.7101 15.4825 16.4788 17.0013 16.4788C18.5201 16.4788 19.7513 17.7101 19.7513 19.2288Z" fill="white"/>
<path fill-rule="evenodd" clip-rule="evenodd" d="M12.7166 11.0693C13.5081 10.2777 14.5818 9.83301 15.7012 9.83301H18.3014C19.4208 9.83301 20.4945 10.2777 21.286 11.0693L21.958 11.7413C22.3878 12.171 22.9711 12.4081 23.5788 12.4166C24.5216 12.4297 25.089 12.4852 25.5482 12.7192C26.0777 12.989 26.5081 13.4194 26.7779 13.9489C27.0846 14.5508 27.0846 15.3388 27.0846 16.9148V22.7473C27.0846 24.3233 27.0846 25.1113 26.7779 25.7132C26.5081 26.2427 26.0777 26.6732 25.5482 26.943C24.9463 27.2497 24.1583 27.2497 22.5823 27.2497H11.4203C9.84433 27.2497 9.05635 27.2497 8.45441 26.943C7.92493 26.6732 7.49445 26.2427 7.22467 25.7132C6.91797 25.1113 6.91797 24.3233 6.91797 22.7473V16.9148C6.91797 15.3388 6.91797 14.5508 7.22467 13.9489C7.49445 13.4194 7.92493 12.989 8.45441 12.7192C8.91357 12.4852 9.48097 12.4297 10.4238 12.4166C11.0315 12.4081 11.6148 12.171 12.0446 11.7413L12.7166 11.0693ZM21.8138 19.2288C21.8138 21.8867 19.6592 24.0413 17.0013 24.0413C14.3434 24.0413 12.1888 21.8867 12.1888 19.2288C12.1888 16.571 14.3434 14.4163 17.0013 14.4163C19.6592 14.4163 21.8138 16.571 21.8138 19.2288Z" fill="white"/>
</svg>
