<svg width="24" height="24" viewBox="0 0 24 24" fill="none" xmlns="http://www.w3.org/2000/svg">
<path d="M4.5 4.65659V13.5315C7.13455 12.6642 10.2248 12.5033 12.5812 14.1864C14.5962 15.6257 17.3411 15.1927 19.5 14.3438V5.46888C16.8655 6.33617 13.7752 6.49703 11.4188 4.81391C9.41568 3.38315 6.65726 3.80828 4.5 4.65659ZM21.5 4.00017V15.0002C21.5 15.3789 21.286 15.7252 20.9472 15.8946C18.0371 17.3496 14.2032 17.8028 11.4188 15.8139C9.4038 14.3747 6.65887 14.8076 4.5 15.6566V22.0002C4.5 22.2764 4.27614 22.5002 4 22.5002H3C2.72386 22.5002 2.5 22.2764 2.5 22.0002V4.00017C2.5 3.62477 2.71767 3.27315 3.05344 3.10542C5.92618 1.67262 9.85858 1.2417 12.5812 3.18644C14.7673 4.74791 17.7947 4.20413 20.0528 3.10575C20.7059 2.77949 21.5 3.27067 21.5 4.00017Z" fill="black"/>
</svg>
