<svg width="68" height="26" viewBox="0 0 68 26" fill="none" xmlns="http://www.w3.org/2000/svg">
<path d="M9.20703 12.4585C10.1045 12.4585 10.832 11.6097 10.832 10.5627C10.832 9.51562 10.1045 8.66683 9.20703 8.66683C8.30957 8.66683 7.58203 9.51562 7.58203 10.5627C7.58203 11.6097 8.30957 12.4585 9.20703 12.4585Z" fill="black"/>
<path d="M16.2487 12.4585C17.1462 12.4585 17.8737 11.6097 17.8737 10.5627C17.8737 9.51562 17.1462 8.66683 16.2487 8.66683C15.3512 8.66683 14.6237 9.51562 14.6237 10.5627C14.6237 11.6097 15.3512 12.4585 16.2487 12.4585Z" fill="black"/>
<path d="M24.3812 15.9568C24.5237 15.8143 24.6248 15.6352 24.6658 15.4379C24.8294 14.651 24.9154 13.8356 24.9154 13.0002C24.9154 6.41877 19.5801 1.0835 12.9987 1.0835C6.4173 1.0835 1.08203 6.41877 1.08203 13.0002C1.08203 19.5816 6.4173 24.9168 12.9987 24.9168C13.8341 24.9168 14.6495 24.8309 15.4364 24.6673C15.6337 24.6263 15.8129 24.5251 15.9553 24.3827L24.3812 15.9568ZM21.5654 15.7085L15.707 21.5668V21.1252C15.707 18.1336 18.1322 15.7085 21.1237 15.7085H21.5654ZM13.5404 22.7354C13.3612 22.7452 13.1806 22.7502 12.9987 22.7502C7.61392 22.7502 3.2487 18.3849 3.2487 13.0002C3.2487 7.61539 7.61392 3.25016 12.9987 3.25016C18.3835 3.25016 22.7487 7.61539 22.7487 13.0002C22.7487 13.1821 22.7437 13.3627 22.734 13.5418H21.1237C16.9355 13.5418 13.5404 16.937 13.5404 21.1252V22.7354Z" fill="black"/>
<path fill-rule="evenodd" clip-rule="evenodd" d="M51.1013 4.33317H58.9013C60.1505 4.33317 60.9571 4.33486 61.571 4.38501C62.1596 4.4331 62.3778 4.51474 62.4849 4.56932C62.8926 4.77705 63.2241 5.10851 63.4318 5.51619C63.4864 5.62332 63.568 5.84154 63.6161 6.43015C63.6663 7.04404 63.668 7.85064 63.668 9.09984V16.8998C63.668 18.149 63.6663 18.9556 63.6161 19.5695C63.568 20.1581 63.4864 20.3764 63.4318 20.4835C63.2241 20.8912 62.8926 21.2226 62.4849 21.4303C62.3778 21.4849 62.1596 21.5666 61.571 21.6147C61.4405 21.6253 61.3013 21.6338 61.151 21.6405L53.2403 13.4214C52.8389 13.0012 52.4931 12.6391 52.1841 12.3647C51.8583 12.0754 51.5027 11.8174 51.0618 11.6657C50.4049 11.4397 49.6929 11.43 49.0301 11.6383C48.5853 11.778 48.2229 12.0262 47.8894 12.3067C47.5731 12.5726 47.2176 12.9253 46.805 13.3345L46.3346 13.801V9.09984C46.3346 7.85064 46.3363 7.04404 46.3865 6.43015C46.4346 5.84154 46.5162 5.62332 46.5708 5.51619C46.7785 5.10851 47.11 4.77705 47.5177 4.56932C47.6248 4.51474 47.843 4.4331 48.4316 4.38501C49.0455 4.33486 49.8521 4.33317 51.1013 4.33317ZM46.3346 16.8527V16.8998C46.3346 18.149 46.3363 18.9556 46.3865 19.5695C46.4346 20.1581 46.5162 20.3764 46.5708 20.4835C46.7785 20.8912 47.11 21.2226 47.5177 21.4303C47.6248 21.4849 47.843 21.5666 48.4316 21.6147C49.0455 21.6648 49.8521 21.6665 51.1013 21.6665H58.1788L51.7026 14.9485C51.2639 14.4892 50.9796 14.1928 50.7454 13.9847C50.5204 13.785 50.4138 13.7341 50.3568 13.7145C50.1378 13.6391 49.9005 13.6359 49.6795 13.7053C49.622 13.7234 49.5141 13.7714 49.2838 13.965C49.044 14.1667 48.7518 14.4552 48.3008 14.9025L46.3346 16.8527ZM44.168 9.09984C44.168 6.67294 44.168 5.4595 44.6403 4.53254C45.0557 3.71718 45.7186 3.05426 46.534 2.63881C47.461 2.1665 48.6744 2.1665 51.1013 2.1665H58.9013C61.3282 2.1665 62.5416 2.1665 63.4686 2.63881C64.284 3.05426 64.9469 3.71718 65.3623 4.53254C65.8346 5.4595 65.8346 6.67294 65.8346 9.09984V16.8998C65.8346 19.3267 65.8346 20.5402 65.3623 21.4671C64.9469 22.2825 64.284 22.9454 63.4686 23.3609C62.5416 23.8332 61.3282 23.8332 58.9013 23.8332H51.1013C48.6744 23.8332 47.461 23.8332 46.534 23.3609C45.7186 22.9454 45.0557 22.2825 44.6403 21.4671C44.168 20.5402 44.168 19.3267 44.168 16.8998V9.09984ZM58.793 6.49984C57.2972 6.49984 56.0846 7.7124 56.0846 9.20817C56.0846 10.7039 57.2972 11.9165 58.793 11.9165C60.2887 11.9165 61.5013 10.7039 61.5013 9.20817C61.5013 7.7124 60.2887 6.49984 58.793 6.49984Z" fill="black"/>
</svg>
