<svg width="24" height="24" viewBox="0 0 24 24" fill="none" xmlns="http://www.w3.org/2000/svg">
<path d="M19.3536 6.06017C19.5488 5.86491 19.5488 5.54833 19.3536 5.35307L18.6464 4.64596C18.4512 4.4507 18.1346 4.4507 17.9393 4.64596L12 10.5853L6.06066 4.64596C5.8654 4.4507 5.54882 4.4507 5.35355 4.64596L4.64645 5.35307C4.45118 5.54833 4.45118 5.86491 4.64645 6.06017L10.5858 11.9995L4.64645 17.9389C4.45118 18.1341 4.45118 18.4507 4.64645 18.646L5.35355 19.3531C5.54882 19.5483 5.8654 19.5483 6.06066 19.3531L12 13.4137L17.9393 19.3531C18.1346 19.5483 18.4512 19.5483 18.6464 19.3531L19.3536 18.646C19.5488 18.4507 19.5488 18.1341 19.3536 17.9389L13.4142 11.9995L19.3536 6.06017Z" fill="black"/>
</svg>
