<svg width="18" height="6" viewBox="0 0 18 6" fill="none" xmlns="http://www.w3.org/2000/svg">
<path d="M9.00065 2.74874C11.6123 2.74886 14.1242 3.77655 16.017 5.6194C16.1595 5.76168 16.3873 5.75988 16.5277 5.61538L17.8902 4.20721C17.9613 4.13391 18.0009 4.03464 18.0003 3.93134C17.9997 3.82805 17.959 3.72925 17.887 3.65681C12.9191 -1.21894 5.08146 -1.21894 0.113469 3.65681C0.0415038 3.7292 0.000671813 3.82796 8.2159e-06 3.93126C-0.000655381 4.03455 0.0389041 4.13386 0.109933 4.20721L1.47281 5.61538C1.6131 5.7601 1.8411 5.7619 1.98354 5.6194C3.87659 3.77643 6.3887 2.74874 9.00065 2.74874Z" fill="black"/>
</svg>
